<mxfile host="www.draw.io" modified="2019-12-03T05:58:08.064Z" agent="Mozilla/5.0 (Macintosh; Intel Mac OS X 10_15_0) AppleWebKit/537.36 (KHTML, like Gecko) Chrome/78.0.3904.108 Safari/537.36" etag="sXcNEIvIpWpMOBQQ3dNJ" version="12.3.5" type="github" pages="1">
  <diagram id="mTFrQ1_z55DTdRyV_Tct" name="Page-1">
    <mxGraphModel dx="2757" dy="874" grid="1" gridSize="10" guides="1" tooltips="1" connect="1" arrows="1" fold="1" page="1" pageScale="1" pageWidth="1169" pageHeight="827" math="0" shadow="0">
      <root>
        <mxCell id="0"/>
        <mxCell id="1" parent="0"/>
        <mxCell id="2wiNaJE7lajuv-yTaV8I-2" value="" style="group" vertex="1" connectable="0" parent="1">
          <mxGeometry x="-1160" y="203" width="1150" height="421" as="geometry"/>
        </mxCell>
        <mxCell id="2wiNaJE7lajuv-yTaV8I-1" value="" style="group" vertex="1" connectable="0" parent="2wiNaJE7lajuv-yTaV8I-2">
          <mxGeometry width="1140.1709401709404" height="421" as="geometry"/>
        </mxCell>
        <mxCell id="-EOsGLFOv7Vt-HmKM8Lu-1" value="" style="group" parent="2wiNaJE7lajuv-yTaV8I-1" vertex="1" connectable="0">
          <mxGeometry width="1140.1709401709404" height="421" as="geometry"/>
        </mxCell>
        <mxCell id="3xKM312rynrcHrKgX1cf-6" value="In" style="rounded=0;whiteSpace=wrap;html=1;strokeColor=none;" parent="-EOsGLFOv7Vt-HmKM8Lu-1" vertex="1">
          <mxGeometry y="160.9705882352941" width="54.29385429385433" height="49.52941176470588" as="geometry"/>
        </mxCell>
        <mxCell id="3xKM312rynrcHrKgX1cf-7" value="this" style="rounded=0;whiteSpace=wrap;html=1;strokeColor=none;" parent="-EOsGLFOv7Vt-HmKM8Lu-1" vertex="1">
          <mxGeometry x="54.29385429385428" y="160.9705882352941" width="54.29385429385433" height="49.52941176470588" as="geometry"/>
        </mxCell>
        <mxCell id="3xKM312rynrcHrKgX1cf-27" style="edgeStyle=orthogonalEdgeStyle;rounded=0;orthogonalLoop=1;jettySize=auto;html=1;exitX=0.5;exitY=0;exitDx=0;exitDy=0;entryX=0.5;entryY=0;entryDx=0;entryDy=0;curved=1;" parent="-EOsGLFOv7Vt-HmKM8Lu-1" source="3xKM312rynrcHrKgX1cf-8" target="3xKM312rynrcHrKgX1cf-7" edge="1">
          <mxGeometry relative="1" as="geometry"/>
        </mxCell>
        <mxCell id="3xKM312rynrcHrKgX1cf-79" value="det" style="text;html=1;align=center;verticalAlign=middle;resizable=0;points=[];;labelBackgroundColor=#ffffff;" parent="3xKM312rynrcHrKgX1cf-27" vertex="1" connectable="0">
          <mxGeometry x="-0.0863" y="1" relative="1" as="geometry">
            <mxPoint as="offset"/>
          </mxGeometry>
        </mxCell>
        <mxCell id="3xKM312rynrcHrKgX1cf-31" style="edgeStyle=orthogonalEdgeStyle;curved=1;rounded=0;orthogonalLoop=1;jettySize=auto;html=1;exitX=0.5;exitY=0;exitDx=0;exitDy=0;entryX=0.5;entryY=0;entryDx=0;entryDy=0;startArrow=classic;startFill=1;endArrow=none;endFill=0;" parent="-EOsGLFOv7Vt-HmKM8Lu-1" source="3xKM312rynrcHrKgX1cf-8" target="3xKM312rynrcHrKgX1cf-6" edge="1">
          <mxGeometry relative="1" as="geometry">
            <Array as="points">
              <mxPoint x="135.73463573463582" y="123.82352941176471"/>
              <mxPoint x="27.14692714692714" y="123.82352941176471"/>
            </Array>
          </mxGeometry>
        </mxCell>
        <mxCell id="3xKM312rynrcHrKgX1cf-80" value="pobj" style="text;html=1;align=center;verticalAlign=middle;resizable=0;points=[];;labelBackgroundColor=#ffffff;" parent="3xKM312rynrcHrKgX1cf-31" vertex="1" connectable="0">
          <mxGeometry x="-0.0119" relative="1" as="geometry">
            <mxPoint x="-6.5" as="offset"/>
          </mxGeometry>
        </mxCell>
        <mxCell id="3xKM312rynrcHrKgX1cf-8" value="article" style="rounded=0;whiteSpace=wrap;html=1;strokeColor=none;" parent="-EOsGLFOv7Vt-HmKM8Lu-1" vertex="1">
          <mxGeometry x="108.58770858770868" y="160.9705882352941" width="54.29385429385433" height="49.52941176470588" as="geometry"/>
        </mxCell>
        <mxCell id="3xKM312rynrcHrKgX1cf-30" style="edgeStyle=orthogonalEdgeStyle;curved=1;rounded=0;orthogonalLoop=1;jettySize=auto;html=1;exitX=0.5;exitY=0;exitDx=0;exitDy=0;startArrow=classic;startFill=1;endArrow=none;endFill=0;" parent="-EOsGLFOv7Vt-HmKM8Lu-1" source="3xKM312rynrcHrKgX1cf-9" edge="1">
          <mxGeometry relative="1" as="geometry">
            <mxPoint x="298.61619861619874" y="160.9705882352941" as="targetPoint"/>
            <Array as="points">
              <mxPoint x="190.02849002849013" y="123.82352941176471"/>
              <mxPoint x="298.61619861619874" y="123.82352941176471"/>
            </Array>
          </mxGeometry>
        </mxCell>
        <mxCell id="3xKM312rynrcHrKgX1cf-84" value="punct" style="text;html=1;align=center;verticalAlign=middle;resizable=0;points=[];;labelBackgroundColor=#ffffff;" parent="3xKM312rynrcHrKgX1cf-30" vertex="1" connectable="0">
          <mxGeometry x="-0.0278" relative="1" as="geometry">
            <mxPoint as="offset"/>
          </mxGeometry>
        </mxCell>
        <mxCell id="3xKM312rynrcHrKgX1cf-9" value="," style="rounded=0;whiteSpace=wrap;html=1;strokeColor=none;" parent="-EOsGLFOv7Vt-HmKM8Lu-1" vertex="1">
          <mxGeometry x="162.88156288156299" y="160.9705882352941" width="54.29385429385433" height="49.52941176470588" as="geometry"/>
        </mxCell>
        <mxCell id="3xKM312rynrcHrKgX1cf-10" value="we" style="rounded=0;whiteSpace=wrap;html=1;strokeColor=none;" parent="-EOsGLFOv7Vt-HmKM8Lu-1" vertex="1">
          <mxGeometry x="217.17541717541727" y="160.9705882352941" width="54.29385429385433" height="49.52941176470588" as="geometry"/>
        </mxCell>
        <mxCell id="3xKM312rynrcHrKgX1cf-11" value="present" style="rounded=0;whiteSpace=wrap;html=1;strokeColor=none;" parent="-EOsGLFOv7Vt-HmKM8Lu-1" vertex="1">
          <mxGeometry x="271.4692714692715" y="160.9705882352941" width="54.29385429385433" height="49.52941176470588" as="geometry"/>
        </mxCell>
        <mxCell id="3xKM312rynrcHrKgX1cf-28" style="edgeStyle=orthogonalEdgeStyle;curved=1;rounded=0;orthogonalLoop=1;jettySize=auto;html=1;exitX=0.5;exitY=0;exitDx=0;exitDy=0;entryX=0.5;entryY=0;entryDx=0;entryDy=0;startArrow=classic;startFill=1;endArrow=none;endFill=0;" parent="-EOsGLFOv7Vt-HmKM8Lu-1" source="3xKM312rynrcHrKgX1cf-6" target="3xKM312rynrcHrKgX1cf-11" edge="1">
          <mxGeometry relative="1" as="geometry">
            <Array as="points">
              <mxPoint x="27.554131054131066" y="86.67647058823529"/>
              <mxPoint x="298.3447293447295" y="86.67647058823529"/>
            </Array>
          </mxGeometry>
        </mxCell>
        <mxCell id="3xKM312rynrcHrKgX1cf-83" value="prep" style="text;html=1;align=center;verticalAlign=middle;resizable=0;points=[];;labelBackgroundColor=#ffffff;" parent="3xKM312rynrcHrKgX1cf-28" vertex="1" connectable="0">
          <mxGeometry x="-0.0153" y="1" relative="1" as="geometry">
            <mxPoint as="offset"/>
          </mxGeometry>
        </mxCell>
        <mxCell id="3xKM312rynrcHrKgX1cf-29" style="edgeStyle=orthogonalEdgeStyle;curved=1;rounded=0;orthogonalLoop=1;jettySize=auto;html=1;exitX=0.5;exitY=0;exitDx=0;exitDy=0;entryX=0.25;entryY=0;entryDx=0;entryDy=0;startArrow=classic;startFill=1;endArrow=none;endFill=0;" parent="-EOsGLFOv7Vt-HmKM8Lu-1" source="3xKM312rynrcHrKgX1cf-10" target="3xKM312rynrcHrKgX1cf-11" edge="1">
          <mxGeometry relative="1" as="geometry"/>
        </mxCell>
        <mxCell id="3xKM312rynrcHrKgX1cf-85" value="nsubj" style="text;html=1;align=center;verticalAlign=middle;resizable=0;points=[];;labelBackgroundColor=#ffffff;" parent="3xKM312rynrcHrKgX1cf-29" vertex="1" connectable="0">
          <mxGeometry x="-0.0254" y="-2" relative="1" as="geometry">
            <mxPoint as="offset"/>
          </mxGeometry>
        </mxCell>
        <mxCell id="3xKM312rynrcHrKgX1cf-12" value="the" style="rounded=0;whiteSpace=wrap;html=1;strokeColor=none;" parent="-EOsGLFOv7Vt-HmKM8Lu-1" vertex="1">
          <mxGeometry x="325.7631257631259" y="160.9705882352941" width="54.29385429385433" height="49.52941176470588" as="geometry"/>
        </mxCell>
        <mxCell id="3xKM312rynrcHrKgX1cf-33" style="edgeStyle=orthogonalEdgeStyle;curved=1;rounded=0;orthogonalLoop=1;jettySize=auto;html=1;exitX=0.25;exitY=0;exitDx=0;exitDy=0;entryX=0.5;entryY=0;entryDx=0;entryDy=0;startArrow=none;startFill=0;endArrow=classic;endFill=1;" parent="-EOsGLFOv7Vt-HmKM8Lu-1" source="3xKM312rynrcHrKgX1cf-13" target="3xKM312rynrcHrKgX1cf-12" edge="1">
          <mxGeometry relative="1" as="geometry"/>
        </mxCell>
        <mxCell id="3xKM312rynrcHrKgX1cf-88" value="det" style="text;html=1;align=center;verticalAlign=middle;resizable=0;points=[];;labelBackgroundColor=#ffffff;" parent="3xKM312rynrcHrKgX1cf-33" vertex="1" connectable="0">
          <mxGeometry x="-0.0254" relative="1" as="geometry">
            <mxPoint as="offset"/>
          </mxGeometry>
        </mxCell>
        <mxCell id="3xKM312rynrcHrKgX1cf-13" value="concept" style="rounded=0;whiteSpace=wrap;html=1;strokeColor=none;" parent="-EOsGLFOv7Vt-HmKM8Lu-1" vertex="1">
          <mxGeometry x="380.05698005698025" y="160.9705882352941" width="54.29385429385433" height="49.52941176470588" as="geometry"/>
        </mxCell>
        <mxCell id="3xKM312rynrcHrKgX1cf-32" style="edgeStyle=orthogonalEdgeStyle;curved=1;rounded=0;orthogonalLoop=1;jettySize=auto;html=1;exitX=0.75;exitY=0;exitDx=0;exitDy=0;entryX=0.5;entryY=0;entryDx=0;entryDy=0;startArrow=none;startFill=0;endArrow=classic;endFill=1;" parent="-EOsGLFOv7Vt-HmKM8Lu-1" source="3xKM312rynrcHrKgX1cf-11" target="3xKM312rynrcHrKgX1cf-13" edge="1">
          <mxGeometry relative="1" as="geometry">
            <Array as="points">
              <mxPoint x="312.5968660968662" y="123.82352941176471"/>
              <mxPoint x="407.6111111111113" y="123.82352941176471"/>
            </Array>
          </mxGeometry>
        </mxCell>
        <mxCell id="3xKM312rynrcHrKgX1cf-87" value="dobj" style="text;html=1;align=center;verticalAlign=middle;resizable=0;points=[];;labelBackgroundColor=#ffffff;" parent="3xKM312rynrcHrKgX1cf-32" vertex="1" connectable="0">
          <mxGeometry x="-0.0173" relative="1" as="geometry">
            <mxPoint as="offset"/>
          </mxGeometry>
        </mxCell>
        <mxCell id="3xKM312rynrcHrKgX1cf-14" value="of" style="rounded=0;whiteSpace=wrap;html=1;strokeColor=none;" parent="-EOsGLFOv7Vt-HmKM8Lu-1" vertex="1">
          <mxGeometry x="434.35083435083465" y="160.9705882352941" width="54.29385429385433" height="49.52941176470588" as="geometry"/>
        </mxCell>
        <mxCell id="3xKM312rynrcHrKgX1cf-34" style="edgeStyle=orthogonalEdgeStyle;curved=1;rounded=0;orthogonalLoop=1;jettySize=auto;html=1;exitX=0.75;exitY=0;exitDx=0;exitDy=0;entryX=0.5;entryY=0;entryDx=0;entryDy=0;startArrow=none;startFill=0;endArrow=classic;endFill=1;" parent="-EOsGLFOv7Vt-HmKM8Lu-1" source="3xKM312rynrcHrKgX1cf-13" target="3xKM312rynrcHrKgX1cf-14" edge="1">
          <mxGeometry relative="1" as="geometry"/>
        </mxCell>
        <mxCell id="3xKM312rynrcHrKgX1cf-89" value="prep" style="text;html=1;align=center;verticalAlign=middle;resizable=0;points=[];;labelBackgroundColor=#ffffff;" parent="3xKM312rynrcHrKgX1cf-34" vertex="1" connectable="0">
          <mxGeometry x="0.0593" y="1" relative="1" as="geometry">
            <mxPoint as="offset"/>
          </mxGeometry>
        </mxCell>
        <mxCell id="3xKM312rynrcHrKgX1cf-15" value="sentence" style="rounded=0;whiteSpace=wrap;html=1;strokeColor=none;" parent="-EOsGLFOv7Vt-HmKM8Lu-1" vertex="1">
          <mxGeometry x="488.6446886446889" y="160.9705882352941" width="54.29385429385433" height="49.52941176470588" as="geometry"/>
        </mxCell>
        <mxCell id="3xKM312rynrcHrKgX1cf-36" style="edgeStyle=orthogonalEdgeStyle;curved=1;rounded=0;orthogonalLoop=1;jettySize=auto;html=1;exitX=0.5;exitY=0;exitDx=0;exitDy=0;entryX=0.5;entryY=0;entryDx=0;entryDy=0;startArrow=none;startFill=0;endArrow=classic;endFill=1;" parent="-EOsGLFOv7Vt-HmKM8Lu-1" source="3xKM312rynrcHrKgX1cf-16" target="3xKM312rynrcHrKgX1cf-15" edge="1">
          <mxGeometry relative="1" as="geometry"/>
        </mxCell>
        <mxCell id="3xKM312rynrcHrKgX1cf-91" value="compound" style="text;html=1;align=center;verticalAlign=middle;resizable=0;points=[];;labelBackgroundColor=#ffffff;" parent="3xKM312rynrcHrKgX1cf-36" vertex="1" connectable="0">
          <mxGeometry x="0.0362" y="1" relative="1" as="geometry">
            <mxPoint as="offset"/>
          </mxGeometry>
        </mxCell>
        <mxCell id="3xKM312rynrcHrKgX1cf-16" value="fusion" style="rounded=0;whiteSpace=wrap;html=1;strokeColor=none;" parent="-EOsGLFOv7Vt-HmKM8Lu-1" vertex="1">
          <mxGeometry x="542.938542938543" y="160.9705882352941" width="54.29385429385433" height="49.52941176470588" as="geometry"/>
        </mxCell>
        <mxCell id="3xKM312rynrcHrKgX1cf-35" style="edgeStyle=orthogonalEdgeStyle;curved=1;rounded=0;orthogonalLoop=1;jettySize=auto;html=1;exitX=0.5;exitY=0;exitDx=0;exitDy=0;entryX=0.5;entryY=0;entryDx=0;entryDy=0;startArrow=none;startFill=0;endArrow=classic;endFill=1;" parent="-EOsGLFOv7Vt-HmKM8Lu-1" source="3xKM312rynrcHrKgX1cf-14" target="3xKM312rynrcHrKgX1cf-16" edge="1">
          <mxGeometry relative="1" as="geometry">
            <Array as="points">
              <mxPoint x="461.49776149776176" y="123.82352941176471"/>
              <mxPoint x="570.0854700854703" y="123.82352941176471"/>
            </Array>
          </mxGeometry>
        </mxCell>
        <mxCell id="3xKM312rynrcHrKgX1cf-90" value="pobj" style="text;html=1;align=center;verticalAlign=middle;resizable=0;points=[];;labelBackgroundColor=#ffffff;" parent="3xKM312rynrcHrKgX1cf-35" vertex="1" connectable="0">
          <mxGeometry x="0.0398" relative="1" as="geometry">
            <mxPoint as="offset"/>
          </mxGeometry>
        </mxCell>
        <mxCell id="3xKM312rynrcHrKgX1cf-17" value="which" style="rounded=0;whiteSpace=wrap;html=1;strokeColor=none;" parent="-EOsGLFOv7Vt-HmKM8Lu-1" vertex="1">
          <mxGeometry x="597.2323972323975" y="160.9705882352941" width="54.29385429385433" height="49.52941176470588" as="geometry"/>
        </mxCell>
        <mxCell id="3xKM312rynrcHrKgX1cf-18" value="," style="rounded=0;whiteSpace=wrap;html=1;strokeColor=none;" parent="-EOsGLFOv7Vt-HmKM8Lu-1" vertex="1">
          <mxGeometry x="651.5262515262518" y="160.9705882352941" width="54.29385429385433" height="49.52941176470588" as="geometry"/>
        </mxCell>
        <mxCell id="3xKM312rynrcHrKgX1cf-19" value="given" style="rounded=0;whiteSpace=wrap;html=1;strokeColor=none;" parent="-EOsGLFOv7Vt-HmKM8Lu-1" vertex="1">
          <mxGeometry x="705.8201058201062" y="160.9705882352941" width="54.29385429385433" height="49.52941176470588" as="geometry"/>
        </mxCell>
        <mxCell id="3xKM312rynrcHrKgX1cf-20" value="a" style="rounded=0;whiteSpace=wrap;html=1;strokeColor=none;" parent="-EOsGLFOv7Vt-HmKM8Lu-1" vertex="1">
          <mxGeometry x="760.1139601139605" y="160.9705882352941" width="54.29385429385433" height="49.52941176470588" as="geometry"/>
        </mxCell>
        <mxCell id="3xKM312rynrcHrKgX1cf-37" style="edgeStyle=orthogonalEdgeStyle;curved=1;rounded=0;orthogonalLoop=1;jettySize=auto;html=1;exitX=0.5;exitY=0;exitDx=0;exitDy=0;entryX=0.5;entryY=0;entryDx=0;entryDy=0;startArrow=none;startFill=0;endArrow=classic;endFill=1;" parent="-EOsGLFOv7Vt-HmKM8Lu-1" source="3xKM312rynrcHrKgX1cf-21" target="3xKM312rynrcHrKgX1cf-20" edge="1">
          <mxGeometry relative="1" as="geometry"/>
        </mxCell>
        <mxCell id="3xKM312rynrcHrKgX1cf-93" value="det" style="text;html=1;align=center;verticalAlign=middle;resizable=0;points=[];;labelBackgroundColor=#ffffff;" parent="3xKM312rynrcHrKgX1cf-37" vertex="1" connectable="0">
          <mxGeometry relative="1" as="geometry">
            <mxPoint as="offset"/>
          </mxGeometry>
        </mxCell>
        <mxCell id="3xKM312rynrcHrKgX1cf-38" style="edgeStyle=orthogonalEdgeStyle;curved=1;rounded=0;orthogonalLoop=1;jettySize=auto;html=1;exitX=0.5;exitY=0;exitDx=0;exitDy=0;entryX=0.5;entryY=0;entryDx=0;entryDy=0;startArrow=none;startFill=0;endArrow=classic;endFill=1;" parent="-EOsGLFOv7Vt-HmKM8Lu-1" source="3xKM312rynrcHrKgX1cf-21" target="3xKM312rynrcHrKgX1cf-19" edge="1">
          <mxGeometry relative="1" as="geometry">
            <Array as="points">
              <mxPoint x="841.5547415547419" y="123.82352941176471"/>
              <mxPoint x="732.9670329670332" y="123.82352941176471"/>
            </Array>
          </mxGeometry>
        </mxCell>
        <mxCell id="3xKM312rynrcHrKgX1cf-92" value="pobj" style="text;html=1;align=center;verticalAlign=middle;resizable=0;points=[];;labelBackgroundColor=#ffffff;" parent="3xKM312rynrcHrKgX1cf-38" vertex="1" connectable="0">
          <mxGeometry x="-0.0119" y="1" relative="1" as="geometry">
            <mxPoint as="offset"/>
          </mxGeometry>
        </mxCell>
        <mxCell id="3xKM312rynrcHrKgX1cf-21" value="set" style="rounded=0;whiteSpace=wrap;html=1;strokeColor=none;" parent="-EOsGLFOv7Vt-HmKM8Lu-1" vertex="1">
          <mxGeometry x="814.4078144078147" y="160.9705882352941" width="54.29385429385433" height="49.52941176470588" as="geometry"/>
        </mxCell>
        <mxCell id="3xKM312rynrcHrKgX1cf-22" value="of" style="rounded=0;whiteSpace=wrap;html=1;strokeColor=none;" parent="-EOsGLFOv7Vt-HmKM8Lu-1" vertex="1">
          <mxGeometry x="868.7016687016693" y="160.9705882352941" width="54.29385429385433" height="49.52941176470588" as="geometry"/>
        </mxCell>
        <mxCell id="3xKM312rynrcHrKgX1cf-40" style="edgeStyle=orthogonalEdgeStyle;curved=1;rounded=0;orthogonalLoop=1;jettySize=auto;html=1;exitX=0.5;exitY=0;exitDx=0;exitDy=0;entryX=0.5;entryY=0;entryDx=0;entryDy=0;startArrow=none;startFill=0;endArrow=classic;endFill=1;" parent="-EOsGLFOv7Vt-HmKM8Lu-1" source="3xKM312rynrcHrKgX1cf-21" target="3xKM312rynrcHrKgX1cf-22" edge="1">
          <mxGeometry relative="1" as="geometry"/>
        </mxCell>
        <mxCell id="3xKM312rynrcHrKgX1cf-94" value="prep" style="text;html=1;align=center;verticalAlign=middle;resizable=0;points=[];;labelBackgroundColor=#ffffff;" parent="3xKM312rynrcHrKgX1cf-40" vertex="1" connectable="0">
          <mxGeometry x="0.0288" y="1" relative="1" as="geometry">
            <mxPoint as="offset"/>
          </mxGeometry>
        </mxCell>
        <mxCell id="3xKM312rynrcHrKgX1cf-23" value="similar" style="rounded=0;whiteSpace=wrap;html=1;strokeColor=none;" parent="-EOsGLFOv7Vt-HmKM8Lu-1" vertex="1">
          <mxGeometry x="922.9955229955235" y="160.9705882352941" width="54.29385429385433" height="49.52941176470588" as="geometry"/>
        </mxCell>
        <mxCell id="3xKM312rynrcHrKgX1cf-42" style="edgeStyle=orthogonalEdgeStyle;curved=1;rounded=0;orthogonalLoop=1;jettySize=auto;html=1;exitX=0.5;exitY=0;exitDx=0;exitDy=0;entryX=0.5;entryY=0;entryDx=0;entryDy=0;startArrow=none;startFill=0;endArrow=classic;endFill=1;" parent="-EOsGLFOv7Vt-HmKM8Lu-1" source="3xKM312rynrcHrKgX1cf-24" target="3xKM312rynrcHrKgX1cf-23" edge="1">
          <mxGeometry relative="1" as="geometry"/>
        </mxCell>
        <mxCell id="3xKM312rynrcHrKgX1cf-96" value="amod" style="text;html=1;align=center;verticalAlign=middle;resizable=0;points=[];;labelBackgroundColor=#ffffff;" parent="3xKM312rynrcHrKgX1cf-42" vertex="1" connectable="0">
          <mxGeometry x="0.0288" y="1" relative="1" as="geometry">
            <mxPoint as="offset"/>
          </mxGeometry>
        </mxCell>
        <mxCell id="3xKM312rynrcHrKgX1cf-24" value="sentence" style="rounded=0;whiteSpace=wrap;html=1;strokeColor=none;" parent="-EOsGLFOv7Vt-HmKM8Lu-1" vertex="1">
          <mxGeometry x="977.2893772893779" y="160.9705882352941" width="54.29385429385433" height="49.52941176470588" as="geometry"/>
        </mxCell>
        <mxCell id="3xKM312rynrcHrKgX1cf-41" style="edgeStyle=orthogonalEdgeStyle;curved=1;rounded=0;orthogonalLoop=1;jettySize=auto;html=1;exitX=0.5;exitY=0;exitDx=0;exitDy=0;entryX=0.5;entryY=0;entryDx=0;entryDy=0;startArrow=none;startFill=0;endArrow=classic;endFill=1;" parent="-EOsGLFOv7Vt-HmKM8Lu-1" source="3xKM312rynrcHrKgX1cf-22" target="3xKM312rynrcHrKgX1cf-24" edge="1">
          <mxGeometry relative="1" as="geometry">
            <Array as="points">
              <mxPoint x="895.8485958485961" y="123.82352941176471"/>
              <mxPoint x="1004.4363044363048" y="123.82352941176471"/>
            </Array>
          </mxGeometry>
        </mxCell>
        <mxCell id="3xKM312rynrcHrKgX1cf-95" value="pobj" style="text;html=1;align=center;verticalAlign=middle;resizable=0;points=[];;labelBackgroundColor=#ffffff;" parent="3xKM312rynrcHrKgX1cf-41" vertex="1" connectable="0">
          <mxGeometry x="0.008" relative="1" as="geometry">
            <mxPoint as="offset"/>
          </mxGeometry>
        </mxCell>
        <mxCell id="3xKM312rynrcHrKgX1cf-25" value="," style="rounded=0;whiteSpace=wrap;html=1;strokeColor=none;" parent="-EOsGLFOv7Vt-HmKM8Lu-1" vertex="1">
          <mxGeometry x="1031.5832315832322" y="160.9705882352941" width="54.29385429385433" height="49.52941176470588" as="geometry"/>
        </mxCell>
        <mxCell id="3xKM312rynrcHrKgX1cf-39" style="edgeStyle=orthogonalEdgeStyle;curved=1;rounded=0;orthogonalLoop=1;jettySize=auto;html=1;exitX=0.5;exitY=0;exitDx=0;exitDy=0;entryX=0.5;entryY=0;entryDx=0;entryDy=0;startArrow=none;startFill=0;endArrow=classic;endFill=1;" parent="-EOsGLFOv7Vt-HmKM8Lu-1" source="3xKM312rynrcHrKgX1cf-26" target="3xKM312rynrcHrKgX1cf-17" edge="1">
          <mxGeometry relative="1" as="geometry">
            <Array as="points">
              <mxPoint x="1113.5669515669522" y="24.76470588235294"/>
              <mxPoint x="624.2435897435901" y="24.76470588235294"/>
            </Array>
          </mxGeometry>
        </mxCell>
        <mxCell id="3xKM312rynrcHrKgX1cf-100" value="nsubj" style="text;html=1;align=center;verticalAlign=middle;resizable=0;points=[];;labelBackgroundColor=#ffffff;" parent="3xKM312rynrcHrKgX1cf-39" vertex="1" connectable="0">
          <mxGeometry x="0.0197" relative="1" as="geometry">
            <mxPoint as="offset"/>
          </mxGeometry>
        </mxCell>
        <mxCell id="3xKM312rynrcHrKgX1cf-43" style="edgeStyle=orthogonalEdgeStyle;curved=1;rounded=0;orthogonalLoop=1;jettySize=auto;html=1;exitX=0.5;exitY=0;exitDx=0;exitDy=0;entryX=0.5;entryY=0;entryDx=0;entryDy=0;startArrow=none;startFill=0;endArrow=classic;endFill=1;" parent="-EOsGLFOv7Vt-HmKM8Lu-1" source="3xKM312rynrcHrKgX1cf-26" target="3xKM312rynrcHrKgX1cf-19" edge="1">
          <mxGeometry relative="1" as="geometry">
            <Array as="points">
              <mxPoint x="1112.9059829059834" y="74.29411764705883"/>
              <mxPoint x="732.849002849003" y="74.29411764705883"/>
            </Array>
          </mxGeometry>
        </mxCell>
        <mxCell id="3xKM312rynrcHrKgX1cf-98" value="prep" style="text;html=1;align=center;verticalAlign=middle;resizable=0;points=[];;labelBackgroundColor=#ffffff;" parent="3xKM312rynrcHrKgX1cf-43" vertex="1" connectable="0">
          <mxGeometry x="-0.0217" relative="1" as="geometry">
            <mxPoint as="offset"/>
          </mxGeometry>
        </mxCell>
        <mxCell id="3xKM312rynrcHrKgX1cf-44" style="edgeStyle=orthogonalEdgeStyle;curved=1;rounded=0;orthogonalLoop=1;jettySize=auto;html=1;exitX=0.5;exitY=0;exitDx=0;exitDy=0;entryX=0.5;entryY=0;entryDx=0;entryDy=0;startArrow=none;startFill=0;endArrow=classic;endFill=1;" parent="-EOsGLFOv7Vt-HmKM8Lu-1" source="3xKM312rynrcHrKgX1cf-26" target="3xKM312rynrcHrKgX1cf-18" edge="1">
          <mxGeometry relative="1" as="geometry">
            <Array as="points">
              <mxPoint x="1113.5669515669522" y="49.52941176470588"/>
              <mxPoint x="679.3518518518523" y="49.52941176470588"/>
            </Array>
          </mxGeometry>
        </mxCell>
        <mxCell id="3xKM312rynrcHrKgX1cf-99" value="punct" style="text;html=1;align=center;verticalAlign=middle;resizable=0;points=[];;labelBackgroundColor=#ffffff;" parent="3xKM312rynrcHrKgX1cf-44" vertex="1" connectable="0">
          <mxGeometry x="0.0173" relative="1" as="geometry">
            <mxPoint as="offset"/>
          </mxGeometry>
        </mxCell>
        <mxCell id="3xKM312rynrcHrKgX1cf-45" style="edgeStyle=orthogonalEdgeStyle;curved=1;rounded=0;orthogonalLoop=1;jettySize=auto;html=1;exitX=0.5;exitY=0;exitDx=0;exitDy=0;entryX=0.5;entryY=0;entryDx=0;entryDy=0;startArrow=none;startFill=0;endArrow=classic;endFill=1;" parent="-EOsGLFOv7Vt-HmKM8Lu-1" source="3xKM312rynrcHrKgX1cf-26" target="3xKM312rynrcHrKgX1cf-25" edge="1">
          <mxGeometry relative="1" as="geometry"/>
        </mxCell>
        <mxCell id="3xKM312rynrcHrKgX1cf-97" value="punct" style="text;html=1;align=center;verticalAlign=middle;resizable=0;points=[];;labelBackgroundColor=#ffffff;" parent="3xKM312rynrcHrKgX1cf-45" vertex="1" connectable="0">
          <mxGeometry x="-0.0576" y="2" relative="1" as="geometry">
            <mxPoint x="-3" y="-2.5" as="offset"/>
          </mxGeometry>
        </mxCell>
        <mxCell id="3xKM312rynrcHrKgX1cf-47" style="edgeStyle=orthogonalEdgeStyle;curved=1;rounded=0;orthogonalLoop=1;jettySize=auto;html=1;exitX=0.5;exitY=0;exitDx=0;exitDy=0;entryX=0.5;entryY=0;entryDx=0;entryDy=0;startArrow=none;startFill=0;endArrow=classic;endFill=1;" parent="-EOsGLFOv7Vt-HmKM8Lu-1" source="3xKM312rynrcHrKgX1cf-26" target="3xKM312rynrcHrKgX1cf-13" edge="1">
          <mxGeometry relative="1" as="geometry">
            <Array as="points">
              <mxPoint x="1112.6168091168097"/>
              <mxPoint x="407.6111111111113"/>
            </Array>
          </mxGeometry>
        </mxCell>
        <mxCell id="3xKM312rynrcHrKgX1cf-101" value="relcl" style="text;html=1;align=center;verticalAlign=middle;resizable=0;points=[];;labelBackgroundColor=#ffffff;" parent="3xKM312rynrcHrKgX1cf-47" vertex="1" connectable="0">
          <mxGeometry x="-0.0151" y="1" relative="1" as="geometry">
            <mxPoint as="offset"/>
          </mxGeometry>
        </mxCell>
        <mxCell id="3xKM312rynrcHrKgX1cf-26" value="produces" style="rounded=0;whiteSpace=wrap;html=1;strokeColor=none;" parent="-EOsGLFOv7Vt-HmKM8Lu-1" vertex="1">
          <mxGeometry x="1085.877085877086" y="160.9705882352941" width="54.29385429385433" height="49.52941176470588" as="geometry"/>
        </mxCell>
        <mxCell id="3xKM312rynrcHrKgX1cf-48" value="a" style="rounded=0;whiteSpace=wrap;html=1;strokeColor=none;" parent="-EOsGLFOv7Vt-HmKM8Lu-1" vertex="1">
          <mxGeometry x="191.4537037037038" y="272.4117647058824" width="54.29385429385433" height="49.52941176470588" as="geometry"/>
        </mxCell>
        <mxCell id="3xKM312rynrcHrKgX1cf-49" value="new" style="rounded=0;whiteSpace=wrap;html=1;strokeColor=none;" parent="-EOsGLFOv7Vt-HmKM8Lu-1" vertex="1">
          <mxGeometry x="245.74755799755806" y="272.4117647058824" width="54.29385429385433" height="49.52941176470588" as="geometry"/>
        </mxCell>
        <mxCell id="3xKM312rynrcHrKgX1cf-65" style="edgeStyle=orthogonalEdgeStyle;curved=1;rounded=0;orthogonalLoop=1;jettySize=auto;html=1;exitX=0.5;exitY=1;exitDx=0;exitDy=0;entryX=0.5;entryY=1;entryDx=0;entryDy=0;startArrow=none;startFill=0;endArrow=classic;endFill=1;" parent="-EOsGLFOv7Vt-HmKM8Lu-1" source="3xKM312rynrcHrKgX1cf-50" target="3xKM312rynrcHrKgX1cf-49" edge="1">
          <mxGeometry relative="1" as="geometry"/>
        </mxCell>
        <mxCell id="3xKM312rynrcHrKgX1cf-105" value="amod" style="text;html=1;align=center;verticalAlign=middle;resizable=0;points=[];;labelBackgroundColor=#ffffff;" parent="3xKM312rynrcHrKgX1cf-65" vertex="1" connectable="0">
          <mxGeometry x="0.0284" relative="1" as="geometry">
            <mxPoint as="offset"/>
          </mxGeometry>
        </mxCell>
        <mxCell id="3xKM312rynrcHrKgX1cf-66" value="det" style="edgeStyle=orthogonalEdgeStyle;curved=1;rounded=0;orthogonalLoop=1;jettySize=auto;html=1;exitX=0.5;exitY=1;exitDx=0;exitDy=0;entryX=0.5;entryY=1;entryDx=0;entryDy=0;startArrow=none;startFill=0;endArrow=classic;endFill=1;" parent="-EOsGLFOv7Vt-HmKM8Lu-1" source="3xKM312rynrcHrKgX1cf-50" target="3xKM312rynrcHrKgX1cf-48" edge="1">
          <mxGeometry relative="1" as="geometry">
            <Array as="points">
              <mxPoint x="327.7991452991454" y="371.4705882352941"/>
              <mxPoint x="218.53276353276365" y="371.4705882352941"/>
            </Array>
          </mxGeometry>
        </mxCell>
        <mxCell id="3xKM312rynrcHrKgX1cf-50" value="sentence" style="rounded=0;whiteSpace=wrap;html=1;strokeColor=none;" parent="-EOsGLFOv7Vt-HmKM8Lu-1" vertex="1">
          <mxGeometry x="300.0414122914124" y="272.4117647058824" width="54.29385429385433" height="49.52941176470588" as="geometry"/>
        </mxCell>
        <mxCell id="3xKM312rynrcHrKgX1cf-78" style="edgeStyle=orthogonalEdgeStyle;curved=1;rounded=0;orthogonalLoop=1;jettySize=auto;html=1;exitX=0.5;exitY=1;exitDx=0;exitDy=0;entryX=0.5;entryY=0;entryDx=0;entryDy=0;startArrow=none;startFill=0;endArrow=classic;endFill=1;" parent="-EOsGLFOv7Vt-HmKM8Lu-1" source="3xKM312rynrcHrKgX1cf-26" target="3xKM312rynrcHrKgX1cf-50" edge="1">
          <mxGeometry relative="1" as="geometry">
            <Array as="points">
              <mxPoint x="1112.6168091168097" y="247.64705882352942"/>
              <mxPoint x="327.7991452991454" y="247.64705882352942"/>
            </Array>
          </mxGeometry>
        </mxCell>
        <mxCell id="3xKM312rynrcHrKgX1cf-102" value="dobj" style="text;html=1;align=center;verticalAlign=middle;resizable=0;points=[];;labelBackgroundColor=#ffffff;" parent="3xKM312rynrcHrKgX1cf-78" vertex="1" connectable="0">
          <mxGeometry x="-0.0086" y="1" relative="1" as="geometry">
            <mxPoint x="-32" y="-1" as="offset"/>
          </mxGeometry>
        </mxCell>
        <mxCell id="3xKM312rynrcHrKgX1cf-51" value="containing" style="rounded=0;whiteSpace=wrap;html=1;strokeColor=none;" parent="-EOsGLFOv7Vt-HmKM8Lu-1" vertex="1">
          <mxGeometry x="353.9280626780629" y="272.4117647058824" width="65.55982905982908" height="49.52941176470588" as="geometry"/>
        </mxCell>
        <mxCell id="3xKM312rynrcHrKgX1cf-67" style="edgeStyle=orthogonalEdgeStyle;curved=1;rounded=0;orthogonalLoop=1;jettySize=auto;html=1;exitX=0.5;exitY=1;exitDx=0;exitDy=0;entryX=0.25;entryY=1;entryDx=0;entryDy=0;startArrow=none;startFill=0;endArrow=classic;endFill=1;" parent="-EOsGLFOv7Vt-HmKM8Lu-1" source="3xKM312rynrcHrKgX1cf-50" target="3xKM312rynrcHrKgX1cf-51" edge="1">
          <mxGeometry relative="1" as="geometry">
            <Array as="points">
              <mxPoint x="326.84900284900294" y="346.70588235294116"/>
              <mxPoint x="370.55555555555566" y="346.70588235294116"/>
            </Array>
          </mxGeometry>
        </mxCell>
        <mxCell id="3xKM312rynrcHrKgX1cf-106" value="acl" style="text;html=1;align=center;verticalAlign=middle;resizable=0;points=[];;labelBackgroundColor=#ffffff;" parent="3xKM312rynrcHrKgX1cf-67" vertex="1" connectable="0">
          <mxGeometry x="0.0403" y="3" relative="1" as="geometry">
            <mxPoint as="offset"/>
          </mxGeometry>
        </mxCell>
        <mxCell id="3xKM312rynrcHrKgX1cf-52" value="the" style="rounded=0;whiteSpace=wrap;html=1;strokeColor=none;" parent="-EOsGLFOv7Vt-HmKM8Lu-1" vertex="1">
          <mxGeometry x="419.48789173789186" y="272.4117647058824" width="57.008547008547026" height="49.52941176470588" as="geometry"/>
        </mxCell>
        <mxCell id="3xKM312rynrcHrKgX1cf-68" style="edgeStyle=orthogonalEdgeStyle;curved=1;rounded=0;orthogonalLoop=1;jettySize=auto;html=1;exitX=0.5;exitY=1;exitDx=0;exitDy=0;entryX=0.5;entryY=1;entryDx=0;entryDy=0;startArrow=none;startFill=0;endArrow=classic;endFill=1;" parent="-EOsGLFOv7Vt-HmKM8Lu-1" source="3xKM312rynrcHrKgX1cf-53" target="3xKM312rynrcHrKgX1cf-52" edge="1">
          <mxGeometry relative="1" as="geometry"/>
        </mxCell>
        <mxCell id="3xKM312rynrcHrKgX1cf-109" value="det" style="text;html=1;align=center;verticalAlign=middle;resizable=0;points=[];;labelBackgroundColor=#ffffff;" parent="3xKM312rynrcHrKgX1cf-68" vertex="1" connectable="0">
          <mxGeometry x="0.0066" y="-1" relative="1" as="geometry">
            <mxPoint as="offset"/>
          </mxGeometry>
        </mxCell>
        <mxCell id="3xKM312rynrcHrKgX1cf-69" style="edgeStyle=orthogonalEdgeStyle;curved=1;rounded=0;orthogonalLoop=1;jettySize=auto;html=1;exitX=0.5;exitY=1;exitDx=0;exitDy=0;entryX=0.5;entryY=1;entryDx=0;entryDy=0;startArrow=none;startFill=0;endArrow=classic;endFill=1;" parent="-EOsGLFOv7Vt-HmKM8Lu-1" source="3xKM312rynrcHrKgX1cf-53" target="3xKM312rynrcHrKgX1cf-51" edge="1">
          <mxGeometry relative="1" as="geometry">
            <Array as="points">
              <mxPoint x="510.22649572649595" y="359.08823529411757"/>
              <mxPoint x="386.70797720797736" y="359.08823529411757"/>
            </Array>
          </mxGeometry>
        </mxCell>
        <mxCell id="3xKM312rynrcHrKgX1cf-108" value="dobj" style="text;html=1;align=center;verticalAlign=middle;resizable=0;points=[];;labelBackgroundColor=#ffffff;" parent="3xKM312rynrcHrKgX1cf-69" vertex="1" connectable="0">
          <mxGeometry x="0.044" y="1" relative="1" as="geometry">
            <mxPoint as="offset"/>
          </mxGeometry>
        </mxCell>
        <mxCell id="3xKM312rynrcHrKgX1cf-53" value="information" style="rounded=0;whiteSpace=wrap;html=1;strokeColor=none;" parent="-EOsGLFOv7Vt-HmKM8Lu-1" vertex="1">
          <mxGeometry x="476.4964387464389" y="272.4117647058824" width="66.50997150997154" height="49.52941176470588" as="geometry"/>
        </mxCell>
        <mxCell id="3xKM312rynrcHrKgX1cf-54" value="common" style="rounded=0;whiteSpace=wrap;html=1;strokeColor=none;" parent="-EOsGLFOv7Vt-HmKM8Lu-1" vertex="1">
          <mxGeometry x="542.8706756206759" y="272.4117647058824" width="54.29385429385433" height="49.52941176470588" as="geometry"/>
        </mxCell>
        <mxCell id="3xKM312rynrcHrKgX1cf-70" style="edgeStyle=orthogonalEdgeStyle;curved=1;rounded=0;orthogonalLoop=1;jettySize=auto;html=1;exitX=0.5;exitY=1;exitDx=0;exitDy=0;entryX=0.5;entryY=1;entryDx=0;entryDy=0;startArrow=none;startFill=0;endArrow=classic;endFill=1;" parent="-EOsGLFOv7Vt-HmKM8Lu-1" source="3xKM312rynrcHrKgX1cf-53" target="3xKM312rynrcHrKgX1cf-54" edge="1">
          <mxGeometry relative="1" as="geometry"/>
        </mxCell>
        <mxCell id="3xKM312rynrcHrKgX1cf-110" value="amod" style="text;html=1;align=center;verticalAlign=middle;resizable=0;points=[];;labelBackgroundColor=#ffffff;" parent="3xKM312rynrcHrKgX1cf-70" vertex="1" connectable="0">
          <mxGeometry x="0.0333" y="1" relative="1" as="geometry">
            <mxPoint as="offset"/>
          </mxGeometry>
        </mxCell>
        <mxCell id="3xKM312rynrcHrKgX1cf-55" value="to" style="rounded=0;whiteSpace=wrap;html=1;strokeColor=none;" parent="-EOsGLFOv7Vt-HmKM8Lu-1" vertex="1">
          <mxGeometry x="597.1645299145301" y="272.4117647058824" width="54.29385429385433" height="49.52941176470588" as="geometry"/>
        </mxCell>
        <mxCell id="3xKM312rynrcHrKgX1cf-71" style="edgeStyle=orthogonalEdgeStyle;curved=1;rounded=0;orthogonalLoop=1;jettySize=auto;html=1;exitX=0.5;exitY=1;exitDx=0;exitDy=0;entryX=0.5;entryY=1;entryDx=0;entryDy=0;startArrow=none;startFill=0;endArrow=classic;endFill=1;" parent="-EOsGLFOv7Vt-HmKM8Lu-1" source="3xKM312rynrcHrKgX1cf-54" target="3xKM312rynrcHrKgX1cf-55" edge="1">
          <mxGeometry relative="1" as="geometry"/>
        </mxCell>
        <mxCell id="3xKM312rynrcHrKgX1cf-111" value="prep" style="text;html=1;align=center;verticalAlign=middle;resizable=0;points=[];;labelBackgroundColor=#ffffff;" parent="3xKM312rynrcHrKgX1cf-71" vertex="1" connectable="0">
          <mxGeometry x="0.0284" y="1" relative="1" as="geometry">
            <mxPoint as="offset"/>
          </mxGeometry>
        </mxCell>
        <mxCell id="3xKM312rynrcHrKgX1cf-56" value="most" style="rounded=0;whiteSpace=wrap;html=1;strokeColor=none;" parent="-EOsGLFOv7Vt-HmKM8Lu-1" vertex="1">
          <mxGeometry x="651.4583842083847" y="272.4117647058824" width="54.29385429385433" height="49.52941176470588" as="geometry"/>
        </mxCell>
        <mxCell id="3xKM312rynrcHrKgX1cf-72" style="edgeStyle=orthogonalEdgeStyle;curved=1;rounded=0;orthogonalLoop=1;jettySize=auto;html=1;exitX=0.5;exitY=1;exitDx=0;exitDy=0;entryX=0.5;entryY=1;entryDx=0;entryDy=0;startArrow=none;startFill=0;endArrow=classic;endFill=1;" parent="-EOsGLFOv7Vt-HmKM8Lu-1" source="3xKM312rynrcHrKgX1cf-57" target="3xKM312rynrcHrKgX1cf-56" edge="1">
          <mxGeometry relative="1" as="geometry"/>
        </mxCell>
        <mxCell id="3xKM312rynrcHrKgX1cf-113" value="amod" style="text;html=1;align=center;verticalAlign=middle;resizable=0;points=[];;labelBackgroundColor=#ffffff;" parent="3xKM312rynrcHrKgX1cf-72" vertex="1" connectable="0">
          <mxGeometry x="0.0284" y="-1" relative="1" as="geometry">
            <mxPoint x="1.5" y="1" as="offset"/>
          </mxGeometry>
        </mxCell>
        <mxCell id="3xKM312rynrcHrKgX1cf-57" value="sentences" style="rounded=0;whiteSpace=wrap;html=1;strokeColor=none;" parent="-EOsGLFOv7Vt-HmKM8Lu-1" vertex="1">
          <mxGeometry x="705.7522385022388" y="272.4117647058824" width="54.29385429385433" height="49.52941176470588" as="geometry"/>
        </mxCell>
        <mxCell id="3xKM312rynrcHrKgX1cf-73" style="edgeStyle=orthogonalEdgeStyle;curved=1;rounded=0;orthogonalLoop=1;jettySize=auto;html=1;exitX=0.75;exitY=1;exitDx=0;exitDy=0;entryX=0.5;entryY=1;entryDx=0;entryDy=0;startArrow=none;startFill=0;endArrow=classic;endFill=1;" parent="-EOsGLFOv7Vt-HmKM8Lu-1" source="3xKM312rynrcHrKgX1cf-55" target="3xKM312rynrcHrKgX1cf-57" edge="1">
          <mxGeometry relative="1" as="geometry">
            <Array as="points">
              <mxPoint x="637.5455840455843" y="371.4705882352941"/>
              <mxPoint x="732.5598290598296" y="371.4705882352941"/>
            </Array>
          </mxGeometry>
        </mxCell>
        <mxCell id="3xKM312rynrcHrKgX1cf-112" value="pobj" style="text;html=1;align=center;verticalAlign=middle;resizable=0;points=[];;labelBackgroundColor=#ffffff;" parent="3xKM312rynrcHrKgX1cf-73" vertex="1" connectable="0">
          <mxGeometry x="0.0433" relative="1" as="geometry">
            <mxPoint x="-5" as="offset"/>
          </mxGeometry>
        </mxCell>
        <mxCell id="3xKM312rynrcHrKgX1cf-58" value="in" style="rounded=0;whiteSpace=wrap;html=1;strokeColor=none;" parent="-EOsGLFOv7Vt-HmKM8Lu-1" vertex="1">
          <mxGeometry x="760.046092796093" y="272.4117647058824" width="54.29385429385433" height="49.52941176470588" as="geometry"/>
        </mxCell>
        <mxCell id="3xKM312rynrcHrKgX1cf-76" style="edgeStyle=orthogonalEdgeStyle;curved=1;rounded=0;orthogonalLoop=1;jettySize=auto;html=1;exitX=0.5;exitY=1;exitDx=0;exitDy=0;entryX=0.25;entryY=1;entryDx=0;entryDy=0;startArrow=none;startFill=0;endArrow=classic;endFill=1;" parent="-EOsGLFOv7Vt-HmKM8Lu-1" source="3xKM312rynrcHrKgX1cf-51" target="3xKM312rynrcHrKgX1cf-58" edge="1">
          <mxGeometry relative="1" as="geometry">
            <Array as="points">
              <mxPoint x="386.70797720797736" y="421"/>
              <mxPoint x="773.4159544159547" y="421"/>
            </Array>
          </mxGeometry>
        </mxCell>
        <mxCell id="3xKM312rynrcHrKgX1cf-107" value="prep" style="text;html=1;align=center;verticalAlign=middle;resizable=0;points=[];;labelBackgroundColor=#ffffff;" parent="3xKM312rynrcHrKgX1cf-76" vertex="1" connectable="0">
          <mxGeometry x="-0.0085" relative="1" as="geometry">
            <mxPoint as="offset"/>
          </mxGeometry>
        </mxCell>
        <mxCell id="3xKM312rynrcHrKgX1cf-59" value="the" style="rounded=0;whiteSpace=wrap;html=1;strokeColor=none;" parent="-EOsGLFOv7Vt-HmKM8Lu-1" vertex="1">
          <mxGeometry x="814.3399470899475" y="272.4117647058824" width="54.29385429385433" height="49.52941176470588" as="geometry"/>
        </mxCell>
        <mxCell id="3xKM312rynrcHrKgX1cf-74" style="edgeStyle=orthogonalEdgeStyle;curved=1;rounded=0;orthogonalLoop=1;jettySize=auto;html=1;exitX=0.5;exitY=1;exitDx=0;exitDy=0;entryX=0.5;entryY=1;entryDx=0;entryDy=0;startArrow=none;startFill=0;endArrow=classic;endFill=1;" parent="-EOsGLFOv7Vt-HmKM8Lu-1" source="3xKM312rynrcHrKgX1cf-60" target="3xKM312rynrcHrKgX1cf-59" edge="1">
          <mxGeometry relative="1" as="geometry"/>
        </mxCell>
        <mxCell id="3xKM312rynrcHrKgX1cf-115" value="det" style="text;html=1;align=center;verticalAlign=middle;resizable=0;points=[];;labelBackgroundColor=#ffffff;" parent="3xKM312rynrcHrKgX1cf-74" vertex="1" connectable="0">
          <mxGeometry x="-0.0643" y="-3" relative="1" as="geometry">
            <mxPoint as="offset"/>
          </mxGeometry>
        </mxCell>
        <mxCell id="3xKM312rynrcHrKgX1cf-60" value="set" style="rounded=0;whiteSpace=wrap;html=1;strokeColor=none;" parent="-EOsGLFOv7Vt-HmKM8Lu-1" vertex="1">
          <mxGeometry x="868.6338013838016" y="272.4117647058824" width="54.29385429385433" height="49.52941176470588" as="geometry"/>
        </mxCell>
        <mxCell id="3xKM312rynrcHrKgX1cf-75" style="edgeStyle=orthogonalEdgeStyle;curved=1;rounded=0;orthogonalLoop=1;jettySize=auto;html=1;exitX=0.5;exitY=1;exitDx=0;exitDy=0;entryX=0.5;entryY=1;entryDx=0;entryDy=0;startArrow=none;startFill=0;endArrow=classic;endFill=1;" parent="-EOsGLFOv7Vt-HmKM8Lu-1" source="3xKM312rynrcHrKgX1cf-58" target="3xKM312rynrcHrKgX1cf-60" edge="1">
          <mxGeometry relative="1" as="geometry">
            <Array as="points">
              <mxPoint x="786.717948717949" y="359.08823529411757"/>
              <mxPoint x="895.9843304843308" y="359.08823529411757"/>
            </Array>
          </mxGeometry>
        </mxCell>
        <mxCell id="3xKM312rynrcHrKgX1cf-114" value="pobj" style="text;html=1;align=center;verticalAlign=middle;resizable=0;points=[];;labelBackgroundColor=#ffffff;" parent="3xKM312rynrcHrKgX1cf-75" vertex="1" connectable="0">
          <mxGeometry x="-0.0876" y="1" relative="1" as="geometry">
            <mxPoint x="7.5" y="1.5" as="offset"/>
          </mxGeometry>
        </mxCell>
        <mxCell id="3xKM312rynrcHrKgX1cf-62" value="." style="rounded=0;whiteSpace=wrap;html=1;strokeColor=none;" parent="-EOsGLFOv7Vt-HmKM8Lu-1" vertex="1">
          <mxGeometry x="922.7919210419215" y="272.4117647058824" width="54.29385429385433" height="49.52941176470588" as="geometry"/>
        </mxCell>
        <mxCell id="3xKM312rynrcHrKgX1cf-103" style="edgeStyle=orthogonalEdgeStyle;curved=1;rounded=0;orthogonalLoop=1;jettySize=auto;html=1;exitX=0.5;exitY=1;exitDx=0;exitDy=0;entryX=0.5;entryY=0;entryDx=0;entryDy=0;startArrow=none;startFill=0;endArrow=classic;endFill=1;" parent="-EOsGLFOv7Vt-HmKM8Lu-1" source="3xKM312rynrcHrKgX1cf-11" target="3xKM312rynrcHrKgX1cf-62" edge="1">
          <mxGeometry relative="1" as="geometry">
            <Array as="points">
              <mxPoint x="298.3447293447295" y="235.26470588235293"/>
              <mxPoint x="950.1424501424508" y="235.26470588235293"/>
            </Array>
          </mxGeometry>
        </mxCell>
        <mxCell id="3xKM312rynrcHrKgX1cf-104" value="punct" style="text;html=1;align=center;verticalAlign=middle;resizable=0;points=[];;labelBackgroundColor=#ffffff;" parent="3xKM312rynrcHrKgX1cf-103" vertex="1" connectable="0">
          <mxGeometry x="-0.0581" y="1" relative="1" as="geometry">
            <mxPoint as="offset"/>
          </mxGeometry>
        </mxCell>
      </root>
    </mxGraphModel>
  </diagram>
</mxfile>
